<svg viewBox="0 0 87 36" fill="none" xmlns="http://www.w3.org/2000/svg">
<path d="M0.416016 16.8764V0.514404H3.30887V7.54983H5.66944L10.2749 0.514404H13.5612L8.09944 8.52183L13.5843 16.8764H10.2054L5.8083 10.1881H3.30887V16.8764H0.416016Z" fill="#534AB7"/>
<path d="M13.4275 16.8764L19.6993 0.514404H23.1475L29.3961 16.8764H26.2718L25.1841 13.8447H17.6395L16.5287 16.8764H13.4275ZM18.5653 11.2295H24.2353L21.4118 3.4304L18.5653 11.2295Z" fill="#534AB7"/>
<path d="M33.044 16.8764V3.15269H27.9294V0.514404H41.0283V3.15269H35.9137V16.8764H33.044Z" fill="#534AB7"/>
<path d="M42.6237 16.8764V0.514404H48.7797C50.014 0.514404 51.0786 0.707261 51.9734 1.09298C52.8837 1.46326 53.5857 2.05726 54.0794 2.87498C54.5886 3.69269 54.8431 4.76498 54.8431 6.09183C54.8431 7.35698 54.5654 8.41383 54.01 9.2624C53.4546 10.111 52.6986 10.7513 51.742 11.1833C50.7854 11.5998 49.69 11.8081 48.4557 11.8081H45.5166V16.8764H42.6237ZM45.5166 9.21612H48.4094C49.474 9.21612 50.3303 8.96155 50.9783 8.4524C51.6263 7.94326 51.9503 7.14098 51.9503 6.04555C51.9503 5.08898 51.6803 4.37155 51.1403 3.89326C50.6003 3.39955 49.7671 3.15269 48.6408 3.15269H45.5166V9.21612Z" fill="#534AB7"/>
<path d="M56.1114 16.8764V0.514404H59.0042V12.109L67.1505 0.514404H69.7425V16.8764H66.8497V5.42069L58.6802 16.8764H56.1114Z" fill="#534AB7"/>
<path d="M71.503 16.8764V0.514404H74.3959V7.50355H82.033V0.514404H84.9027V16.8764H82.033V10.1418H74.3959V16.8764H71.503Z" fill="#534AB7"/>
<path d="M2.04841 24.3871C1.70926 24.3871 1.42527 24.3177 1.19645 24.1787C0.967629 24.0357 0.796012 23.8396 0.681601 23.5903C0.571276 23.3411 0.516113 23.0571 0.516113 22.7384C0.516113 22.4156 0.571276 22.1316 0.681601 21.8864C0.796012 21.6372 0.967629 21.441 1.19645 21.298C1.42527 21.155 1.71335 21.0835 2.06067 21.0835C2.39981 21.0835 2.68176 21.155 2.90649 21.298C3.13531 21.441 3.30489 21.6372 3.41521 21.8864C3.52962 22.1316 3.58683 22.4156 3.58683 22.7384C3.58683 23.0571 3.52962 23.3411 3.41521 23.5903C3.3008 23.8396 3.12919 24.0357 2.90036 24.1787C2.67563 24.3177 2.39164 24.3871 2.04841 24.3871ZM2.04841 23.9274C2.2854 23.9274 2.47745 23.8743 2.62455 23.7681C2.77574 23.6618 2.88606 23.5188 2.95553 23.339C3.02908 23.1592 3.06585 22.959 3.06585 22.7384C3.06585 22.5177 3.02908 22.3175 2.95553 22.1377C2.88606 21.9579 2.77574 21.8149 2.62455 21.7087C2.47745 21.6024 2.2854 21.5493 2.04841 21.5493C1.8155 21.5493 1.62345 21.6024 1.47226 21.7087C1.32516 21.8149 1.21484 21.9579 1.14129 22.1377C1.07183 22.3175 1.03709 22.5177 1.03709 22.7384C1.03709 22.959 1.07183 23.1592 1.14129 23.339C1.21484 23.5188 1.32516 23.6618 1.47226 23.7681C1.62345 23.8743 1.8155 23.9274 2.04841 23.9274Z" fill="#534AB7"/>
<path d="M4.1613 24.3503V21.1203H4.68228V22.5361H6.30038V21.1203H6.82136V24.3503H6.30038V22.9958H4.68228V24.3503H4.1613Z" fill="#534AB7"/>
<path d="M8.55812 24.3871C8.41102 24.3871 8.268 24.3687 8.12908 24.332C7.99423 24.2911 7.87165 24.2318 7.76133 24.1542C7.65509 24.0725 7.56928 23.9724 7.5039 23.8539C7.44261 23.7313 7.41196 23.5903 7.41196 23.431C7.41196 23.2471 7.44465 23.0918 7.51003 22.9652C7.57949 22.8385 7.67143 22.7384 7.78584 22.6648C7.90025 22.5913 8.03305 22.5382 8.18424 22.5055C8.33542 22.4728 8.49274 22.4564 8.65619 22.4564H9.60621C9.60621 22.2726 9.57965 22.1132 9.52653 21.9784C9.4775 21.8435 9.39577 21.7393 9.28136 21.6658C9.16695 21.5881 9.01576 21.5493 8.8278 21.5493C8.71339 21.5493 8.60715 21.5616 8.50909 21.5861C8.41102 21.6106 8.32725 21.6494 8.25779 21.7025C8.18832 21.7557 8.13725 21.8272 8.10456 21.9171H7.5468C7.57541 21.77 7.63057 21.6453 7.71229 21.5432C7.7981 21.4369 7.90025 21.3511 8.01875 21.2858C8.14134 21.2163 8.27209 21.1652 8.41102 21.1325C8.54995 21.0998 8.68887 21.0835 8.8278 21.0835C9.13835 21.0835 9.3876 21.1468 9.57556 21.2735C9.76352 21.3961 9.90041 21.5718 9.98622 21.8006C10.072 22.0253 10.1149 22.293 10.1149 22.6035V24.3503H9.67976L9.64911 23.9397C9.55922 24.0623 9.45094 24.1563 9.32427 24.2216C9.1976 24.287 9.06684 24.3299 8.932 24.3503C8.80124 24.3749 8.67662 24.3871 8.55812 24.3871ZM8.60715 23.9274C8.81146 23.9274 8.98716 23.8947 9.13426 23.8294C9.28545 23.7599 9.4019 23.6598 9.48362 23.529C9.56535 23.3983 9.60621 23.2389 9.60621 23.051V22.8916H9.03619C8.90135 22.8916 8.76855 22.8936 8.6378 22.8977C8.50704 22.9018 8.38855 22.9182 8.28231 22.9468C8.17607 22.9754 8.09026 23.0244 8.02488 23.0939C7.96359 23.1633 7.93294 23.2634 7.93294 23.3942C7.93294 23.5168 7.96359 23.6169 8.02488 23.6945C8.09026 23.7722 8.17402 23.8314 8.27618 23.8723C8.38242 23.909 8.49274 23.9274 8.60715 23.9274Z" fill="#534AB7"/>
<path d="M12.0041 24.3503L13.0521 22.6587L12.096 21.1203H12.6537L13.5057 22.5177H13.9899V21.1203H14.5109V22.5177H14.9951L15.847 21.1203H16.4048L15.4487 22.6587L16.4967 24.3503H15.89L15.0503 22.959H14.5109V24.3503H13.9899V22.959H13.4505L12.6108 24.3503H12.0041Z" fill="#534AB7"/>
<path d="M18.2066 24.3871C17.8634 24.3871 17.5794 24.3177 17.3547 24.1787C17.1299 24.0357 16.9624 23.8396 16.8521 23.5903C16.7418 23.3411 16.6866 23.0571 16.6866 22.7384C16.6866 22.4156 16.7438 22.1316 16.8582 21.8864C16.9767 21.6372 17.1483 21.441 17.3731 21.298C17.5978 21.155 17.8736 21.0835 18.2005 21.0835C18.4416 21.0835 18.652 21.1305 18.8318 21.2245C19.0157 21.3144 19.1669 21.4369 19.2854 21.5922C19.408 21.7475 19.4958 21.9212 19.5489 22.1132C19.6061 22.3052 19.6306 22.5034 19.6225 22.7077C19.6184 22.7445 19.6163 22.7813 19.6163 22.8181C19.6163 22.8548 19.6143 22.8916 19.6102 22.9284H17.2137C17.2301 23.1163 17.277 23.2859 17.3547 23.4371C17.4323 23.5883 17.5426 23.7088 17.6857 23.7987C17.8287 23.8845 18.0064 23.9274 18.2189 23.9274C18.3251 23.9274 18.4314 23.9152 18.5376 23.8907C18.6479 23.8621 18.746 23.8151 18.8318 23.7497C18.9217 23.6843 18.985 23.5965 19.0218 23.4861H19.5551C19.506 23.6945 19.4141 23.8661 19.2792 24.001C19.1444 24.1317 18.983 24.2298 18.795 24.2952C18.6071 24.3565 18.4109 24.3871 18.2066 24.3871ZM17.226 22.4748H19.0954C19.0913 22.2909 19.0504 22.1295 18.9728 21.9906C18.8951 21.8517 18.7889 21.7434 18.6541 21.6658C18.5233 21.5881 18.366 21.5493 18.1821 21.5493C17.9819 21.5493 17.8123 21.5922 17.6734 21.678C17.5386 21.7638 17.4344 21.8762 17.3608 22.0151C17.2873 22.1541 17.2423 22.3073 17.226 22.4748Z" fill="#534AB7"/>
<path d="M21.7295 24.3503V21.1203H22.2505V22.5116H22.8144L23.7705 21.1203H24.3651L23.2863 22.6587L24.457 24.3503H23.8441L22.8757 22.9652H22.2505V24.3503H21.7295Z" fill="#534AB7"/>
<path d="M25.7612 24.3871C25.6141 24.3871 25.4711 24.3687 25.3322 24.332C25.1973 24.2911 25.0748 24.2318 24.9644 24.1542C24.8582 24.0725 24.7724 23.9724 24.707 23.8539C24.6457 23.7313 24.6151 23.5903 24.6151 23.431C24.6151 23.2471 24.6478 23.0918 24.7131 22.9652C24.7826 22.8385 24.8745 22.7384 24.989 22.6648C25.1034 22.5913 25.2362 22.5382 25.3873 22.5055C25.5385 22.4728 25.6959 22.4564 25.8593 22.4564H26.8093C26.8093 22.2726 26.7828 22.1132 26.7296 21.9784C26.6806 21.8435 26.5989 21.7393 26.4845 21.6658C26.3701 21.5881 26.2189 21.5493 26.0309 21.5493C25.9165 21.5493 25.8103 21.5616 25.7122 21.5861C25.6141 21.6106 25.5304 21.6494 25.4609 21.7025C25.3914 21.7557 25.3404 21.8272 25.3077 21.9171H24.7499C24.7785 21.77 24.8337 21.6453 24.9154 21.5432C25.0012 21.4369 25.1034 21.3511 25.2219 21.2858C25.3444 21.2163 25.4752 21.1652 25.6141 21.1325C25.7531 21.0998 25.892 21.0835 26.0309 21.0835C26.3415 21.0835 26.5907 21.1468 26.7787 21.2735C26.9666 21.3961 27.1035 21.5718 27.1893 21.8006C27.2751 22.0253 27.318 22.293 27.318 22.6035V24.3503H26.8829L26.8522 23.9397C26.7623 24.0623 26.654 24.1563 26.5274 24.2216C26.4007 24.287 26.27 24.3299 26.1351 24.3503C26.0044 24.3749 25.8797 24.3871 25.7612 24.3871ZM25.8103 23.9274C26.0146 23.9274 26.1903 23.8947 26.3374 23.8294C26.4886 23.7599 26.605 23.6598 26.6867 23.529C26.7685 23.3983 26.8093 23.2389 26.8093 23.051V22.8916H26.2393C26.1045 22.8916 25.9717 22.8936 25.8409 22.8977C25.7102 22.9018 25.5917 22.9182 25.4854 22.9468C25.3792 22.9754 25.2934 23.0244 25.228 23.0939C25.1667 23.1633 25.1361 23.2634 25.1361 23.3942C25.1361 23.5168 25.1667 23.6169 25.228 23.6945C25.2934 23.7722 25.3771 23.8314 25.4793 23.8723C25.5855 23.909 25.6959 23.9274 25.8103 23.9274Z" fill="#534AB7"/>
<path d="M28.7565 24.3503V21.58H27.6471V21.1203H30.3868V21.58H29.2775V24.3503H28.7565Z" fill="#534AB7"/>
<path d="M30.5269 24.3503L31.3666 23.0755C31.1336 23.0101 30.9498 22.9039 30.8149 22.7568C30.6801 22.6056 30.6127 22.4054 30.6127 22.1561C30.6127 21.96 30.6413 21.7965 30.6985 21.6658C30.7557 21.5309 30.8394 21.4247 30.9498 21.3471C31.0601 21.2653 31.1929 21.2081 31.3482 21.1754C31.5034 21.1387 31.6812 21.1203 31.8814 21.1203H33.1808V24.3503H32.6598V23.1552H31.9182L31.1336 24.3503H30.5269ZM32.2737 22.7016H32.6598V21.58H31.9672C31.8446 21.58 31.7323 21.5861 31.6301 21.5983C31.528 21.6106 31.4401 21.6372 31.3666 21.678C31.2971 21.7148 31.2419 21.77 31.2011 21.8435C31.1602 21.913 31.1398 22.009 31.1398 22.1316C31.1398 22.2664 31.1725 22.3727 31.2378 22.4503C31.3073 22.5279 31.3952 22.5851 31.5014 22.6219C31.6117 22.6546 31.7343 22.6771 31.8691 22.6893C32.004 22.6975 32.1388 22.7016 32.2737 22.7016Z" fill="#534AB7"/>
<path d="M34.0277 25.092L33.8806 24.8897C33.9378 24.8489 33.9909 24.7998 34.04 24.7426C34.089 24.6854 34.1319 24.6241 34.1687 24.5587C34.2095 24.4934 34.2381 24.428 34.2545 24.3626C34.1483 24.3544 34.0624 24.3197 33.9971 24.2584C33.9317 24.1971 33.899 24.1154 33.899 24.0132C33.9031 23.907 33.9399 23.8232 34.0093 23.7619C34.0829 23.6966 34.1666 23.6639 34.2606 23.6639C34.3791 23.6639 34.4731 23.7068 34.5426 23.7926C34.6161 23.8784 34.6529 23.9989 34.6529 24.1542C34.6529 24.2768 34.6222 24.4035 34.561 24.5342C34.5037 24.665 34.4282 24.7794 34.3342 24.8775C34.2402 24.9796 34.138 25.0511 34.0277 25.092Z" fill="#534AB7"/>
<path d="M36.7 24.3503V21.1203H37.221V22.5116H37.7849L38.7411 21.1203H39.3356L38.2569 22.6587L39.4275 24.3503H38.8146L37.8462 22.9652H37.221V24.3503H36.7Z" fill="#534AB7"/>
<path d="M40.7317 24.3871C40.5846 24.3871 40.4416 24.3687 40.3027 24.332C40.1679 24.2911 40.0453 24.2318 39.9349 24.1542C39.8287 24.0725 39.7429 23.9724 39.6775 23.8539C39.6162 23.7313 39.5856 23.5903 39.5856 23.431C39.5856 23.2471 39.6183 23.0918 39.6837 22.9652C39.7531 22.8385 39.8451 22.7384 39.9595 22.6648C40.0739 22.5913 40.2067 22.5382 40.3579 22.5055C40.509 22.4728 40.6664 22.4564 40.8298 22.4564H41.7798C41.7798 22.2726 41.7533 22.1132 41.7001 21.9784C41.6511 21.8435 41.5694 21.7393 41.455 21.6658C41.3406 21.5881 41.1894 21.5493 41.0014 21.5493C40.887 21.5493 40.7808 21.5616 40.6827 21.5861C40.5846 21.6106 40.5009 21.6494 40.4314 21.7025C40.3619 21.7557 40.3109 21.8272 40.2782 21.9171H39.7204C39.749 21.77 39.8042 21.6453 39.8859 21.5432C39.9717 21.4369 40.0739 21.3511 40.1924 21.2858C40.315 21.2163 40.4457 21.1652 40.5846 21.1325C40.7236 21.0998 40.8625 21.0835 41.0014 21.0835C41.312 21.0835 41.5612 21.1468 41.7492 21.2735C41.9371 21.3961 42.074 21.5718 42.1598 21.8006C42.2456 22.0253 42.2885 22.293 42.2885 22.6035V24.3503H41.8534L41.8227 23.9397C41.7328 24.0623 41.6246 24.1563 41.4979 24.2216C41.3712 24.287 41.2405 24.3299 41.1056 24.3503C40.9749 24.3749 40.8502 24.3871 40.7317 24.3871ZM40.7808 23.9274C40.9851 23.9274 41.1608 23.8947 41.3079 23.8294C41.4591 23.7599 41.5755 23.6598 41.6572 23.529C41.739 23.3983 41.7798 23.2389 41.7798 23.051V22.8916H41.2098C41.075 22.8916 40.9422 22.8936 40.8114 22.8977C40.6807 22.9018 40.5622 22.9182 40.4559 22.9468C40.3497 22.9754 40.2639 23.0244 40.1985 23.0939C40.1372 23.1633 40.1066 23.2634 40.1066 23.3942C40.1066 23.5168 40.1372 23.6169 40.1985 23.6945C40.2639 23.7722 40.3476 23.8314 40.4498 23.8723C40.556 23.909 40.6664 23.9274 40.7808 23.9274Z" fill="#534AB7"/>
<path d="M43.727 24.3503V21.58H42.6176V21.1203H45.3574V21.58H44.248V24.3503H43.727Z" fill="#534AB7"/>
<path d="M45.3748 24.3503L46.5271 22.7016L45.4299 21.1203H46.0551L46.8764 22.3461L47.6732 21.1203H48.28L47.189 22.72L48.3597 24.3503H47.7406L46.8458 23.1184L45.9632 24.3503H45.3748Z" fill="#534AB7"/>
<path d="M50.069 24.3871C49.7258 24.3871 49.4418 24.3177 49.2171 24.1787C48.9923 24.0357 48.8248 23.8396 48.7145 23.5903C48.6041 23.3411 48.549 23.0571 48.549 22.7384C48.549 22.4156 48.6062 22.1316 48.7206 21.8864C48.8391 21.6372 49.0107 21.441 49.2354 21.298C49.4602 21.155 49.736 21.0835 50.0629 21.0835C50.304 21.0835 50.5144 21.1305 50.6942 21.2245C50.8781 21.3144 51.0292 21.4369 51.1477 21.5922C51.2703 21.7475 51.3582 21.9212 51.4113 22.1132C51.4685 22.3052 51.493 22.5034 51.4849 22.7077C51.4808 22.7445 51.4787 22.7813 51.4787 22.8181C51.4787 22.8548 51.4767 22.8916 51.4726 22.9284H49.0761C49.0924 23.1163 49.1394 23.2859 49.2171 23.4371C49.2947 23.5883 49.405 23.7088 49.548 23.7987C49.691 23.8845 49.8688 23.9274 50.0813 23.9274C50.1875 23.9274 50.2937 23.9152 50.4 23.8907C50.5103 23.8621 50.6084 23.8151 50.6942 23.7497C50.7841 23.6843 50.8474 23.5965 50.8842 23.4861H51.4174C51.3684 23.6945 51.2765 23.8661 51.1416 24.001C51.0068 24.1317 50.8454 24.2298 50.6574 24.2952C50.4694 24.3565 50.2733 24.3871 50.069 24.3871ZM49.0883 22.4748H50.9577C50.9537 22.2909 50.9128 22.1295 50.8352 21.9906C50.7575 21.8517 50.6513 21.7434 50.5164 21.6658C50.3857 21.5881 50.2284 21.5493 50.0445 21.5493C49.8443 21.5493 49.6747 21.5922 49.5358 21.678C49.4009 21.7638 49.2967 21.8762 49.2232 22.0151C49.1496 22.1541 49.1047 22.3073 49.0883 22.4748Z" fill="#534AB7"/>
<path d="M52.0625 24.3503V21.1203H52.5835V22.5361H54.2016V21.1203H54.7225V24.3503H54.2016V22.9958H52.5835V24.3503H52.0625Z" fill="#534AB7"/>
<path d="M55.5706 25.092L55.4235 24.8897C55.4807 24.8489 55.5338 24.7998 55.5828 24.7426C55.6319 24.6854 55.6748 24.6241 55.7115 24.5587C55.7524 24.4934 55.781 24.428 55.7973 24.3626C55.6911 24.3544 55.6053 24.3197 55.5399 24.2584C55.4745 24.1971 55.4419 24.1154 55.4419 24.0132C55.4459 23.907 55.4827 23.8232 55.5522 23.7619C55.6257 23.6966 55.7095 23.6639 55.8035 23.6639C55.922 23.6639 56.016 23.7068 56.0854 23.7926C56.159 23.8784 56.1957 23.9989 56.1957 24.1542C56.1957 24.2768 56.1651 24.4035 56.1038 24.5342C56.0466 24.665 55.971 24.7794 55.877 24.8775C55.783 24.9796 55.6809 25.0511 55.5706 25.092Z" fill="#534AB7"/>
<path d="M58.2429 24.3503V21.1203H58.7639V22.5116H59.3278L60.2839 21.1203H60.8784L59.7997 22.6587L60.9704 24.3503H60.3575L59.389 22.9652H58.7639V24.3503H58.2429Z" fill="#534AB7"/>
<path d="M62.2746 24.3871C62.1275 24.3871 61.9845 24.3687 61.8456 24.332C61.7107 24.2911 61.5881 24.2318 61.4778 24.1542C61.3716 24.0725 61.2858 23.9724 61.2204 23.8539C61.1591 23.7313 61.1284 23.5903 61.1284 23.431C61.1284 23.2471 61.1611 23.0918 61.2265 22.9652C61.296 22.8385 61.3879 22.7384 61.5023 22.6648C61.6167 22.5913 61.7495 22.5382 61.9007 22.5055C62.0519 22.4728 62.2092 22.4564 62.3727 22.4564H63.3227C63.3227 22.2726 63.2961 22.1132 63.243 21.9784C63.194 21.8435 63.1122 21.7393 62.9978 21.6658C62.8834 21.5881 62.7322 21.5493 62.5443 21.5493C62.4299 21.5493 62.3236 21.5616 62.2256 21.5861C62.1275 21.6106 62.0437 21.6494 61.9743 21.7025C61.9048 21.7557 61.8537 21.8272 61.821 21.9171H61.2633C61.2919 21.77 61.347 21.6453 61.4288 21.5432C61.5146 21.4369 61.6167 21.3511 61.7352 21.2858C61.8578 21.2163 61.9886 21.1652 62.1275 21.1325C62.2664 21.0998 62.4053 21.0835 62.5443 21.0835C62.8548 21.0835 63.1041 21.1468 63.292 21.2735C63.48 21.3961 63.6169 21.5718 63.7027 21.8006C63.7885 22.0253 63.8314 22.293 63.8314 22.6035V24.3503H63.3962L63.3656 23.9397C63.2757 24.0623 63.1674 24.1563 63.0407 24.2216C62.9141 24.287 62.7833 24.3299 62.6485 24.3503C62.5177 24.3749 62.3931 24.3871 62.2746 24.3871ZM62.3236 23.9274C62.5279 23.9274 62.7036 23.8947 62.8507 23.8294C63.0019 23.7599 63.1184 23.6598 63.2001 23.529C63.2818 23.3983 63.3227 23.2389 63.3227 23.051V22.8916H62.7527C62.6178 22.8916 62.485 22.8936 62.3543 22.8977C62.2235 22.9018 62.105 22.9182 61.9988 22.9468C61.8925 22.9754 61.8067 23.0244 61.7414 23.0939C61.6801 23.1633 61.6494 23.2634 61.6494 23.3942C61.6494 23.5168 61.6801 23.6169 61.7414 23.6945C61.8067 23.7722 61.8905 23.8314 61.9927 23.8723C62.0989 23.909 62.2092 23.9274 62.3236 23.9274Z" fill="#534AB7"/>
<path d="M65.2698 24.3503V21.58H64.1605V21.1203H66.9002V21.58H65.7908V24.3503H65.2698Z" fill="#534AB7"/>
<path d="M68.6399 24.3871C68.2967 24.3871 68.0127 24.3177 67.788 24.1787C67.5632 24.0357 67.3957 23.8396 67.2854 23.5903C67.1751 23.3411 67.1199 23.0571 67.1199 22.7384C67.1199 22.4156 67.1771 22.1316 67.2915 21.8864C67.41 21.6372 67.5816 21.441 67.8064 21.298C68.0311 21.155 68.3069 21.0835 68.6338 21.0835C68.8749 21.0835 69.0853 21.1305 69.2651 21.2245C69.449 21.3144 69.6002 21.4369 69.7187 21.5922C69.8412 21.7475 69.9291 21.9212 69.9822 22.1132C70.0394 22.3052 70.0639 22.5034 70.0558 22.7077C70.0517 22.7445 70.0496 22.7813 70.0496 22.8181C70.0496 22.8548 70.0476 22.8916 70.0435 22.9284H67.647C67.6634 23.1163 67.7103 23.2859 67.788 23.4371C67.8656 23.5883 67.9759 23.7088 68.1189 23.7987C68.262 23.8845 68.4397 23.9274 68.6522 23.9274C68.7584 23.9274 68.8647 23.9152 68.9709 23.8907C69.0812 23.8621 69.1793 23.8151 69.2651 23.7497C69.355 23.6843 69.4183 23.5965 69.4551 23.4861H69.9883C69.9393 23.6945 69.8474 23.8661 69.7125 24.001C69.5777 24.1317 69.4163 24.2298 69.2283 24.2952C69.0404 24.3565 68.8442 24.3871 68.6399 24.3871ZM67.6593 22.4748H69.5287C69.5246 22.2909 69.4837 22.1295 69.4061 21.9906C69.3284 21.8517 69.2222 21.7434 69.0874 21.6658C68.9566 21.5881 68.7993 21.5493 68.6154 21.5493C68.4152 21.5493 68.2456 21.5922 68.1067 21.678C67.9719 21.7638 67.8677 21.8762 67.7941 22.0151C67.7206 22.1541 67.6756 22.3073 67.6593 22.4748Z" fill="#534AB7"/>
<path d="M70.6334 25.5149V21.1203H71.1299L71.1544 21.6167C71.2647 21.441 71.4138 21.3082 71.6018 21.2183C71.7939 21.1284 72.0002 21.0835 72.2209 21.0835C72.5477 21.0835 72.8154 21.157 73.0238 21.3041C73.2322 21.4472 73.3854 21.6433 73.4835 21.8925C73.5856 22.1418 73.6367 22.4237 73.6367 22.7384C73.6367 23.053 73.5856 23.3349 73.4835 23.5842C73.3813 23.8335 73.224 24.0296 73.0115 24.1726C72.799 24.3156 72.5273 24.3871 72.1963 24.3871C72.0329 24.3871 71.8858 24.3708 71.755 24.3381C71.6243 24.3013 71.5099 24.2502 71.4118 24.1849C71.3137 24.1195 71.2279 24.0459 71.1544 23.9642V25.5149H70.6334ZM72.1534 23.9274C72.3904 23.9274 72.5784 23.8743 72.7173 23.7681C72.8562 23.6578 72.9564 23.5127 73.0177 23.3329C73.083 23.1531 73.1157 22.9549 73.1157 22.7384C73.1157 22.5177 73.083 22.3175 73.0177 22.1377C72.9564 21.9579 72.8542 21.8149 72.7112 21.7087C72.5682 21.6024 72.3782 21.5493 72.1412 21.5493C71.9287 21.5493 71.7469 21.6045 71.5957 21.7148C71.4486 21.821 71.3362 21.9661 71.2586 22.15C71.1809 22.3298 71.1421 22.5279 71.1421 22.7445C71.1421 22.9692 71.1789 23.1715 71.2524 23.3513C71.326 23.5311 71.4384 23.6721 71.5896 23.7742C71.7407 23.8764 71.9287 23.9274 72.1534 23.9274Z" fill="#534AB7"/>
<path d="M74.1859 24.3503V21.1203H74.7069V23.5965C74.7355 23.5393 74.7743 23.478 74.8234 23.4126C74.8724 23.3431 74.9112 23.29 74.9398 23.2532L76.5028 21.1203H77.0176V24.3503H76.4966V21.8742C76.4639 21.9355 76.4272 21.9927 76.3863 22.0458C76.3495 22.0989 76.3148 22.1479 76.2821 22.1929L74.6946 24.3503H74.1859Z" fill="#534AB7"/>
<path d="M77.7145 24.3503V21.1203H78.2355V22.5361H79.8536V21.1203H80.3746V24.3503H79.8536V22.9958H78.2355V24.3503H77.7145Z" fill="#534AB7"/>
<path d="M82.1113 24.3871C81.9642 24.3871 81.8212 24.3687 81.6823 24.332C81.5474 24.2911 81.4249 24.2318 81.3145 24.1542C81.2083 24.0725 81.1225 23.9724 81.0571 23.8539C80.9958 23.7313 80.9652 23.5903 80.9652 23.431C80.9652 23.2471 80.9979 23.0918 81.0632 22.9652C81.1327 22.8385 81.2246 22.7384 81.3391 22.6648C81.4535 22.5913 81.5863 22.5382 81.7375 22.5055C81.8886 22.4728 82.046 22.4564 82.2094 22.4564H83.1594C83.1594 22.2726 83.1329 22.1132 83.0797 21.9784C83.0307 21.8435 82.949 21.7393 82.8346 21.6658C82.7202 21.5881 82.569 21.5493 82.381 21.5493C82.2666 21.5493 82.1604 21.5616 82.0623 21.5861C81.9642 21.6106 81.8805 21.6494 81.811 21.7025C81.7415 21.7557 81.6905 21.8272 81.6578 21.9171H81.1C81.1286 21.77 81.1838 21.6453 81.2655 21.5432C81.3513 21.4369 81.4535 21.3511 81.572 21.2858C81.6945 21.2163 81.8253 21.1652 81.9642 21.1325C82.1032 21.0998 82.2421 21.0835 82.381 21.0835C82.6916 21.0835 82.9408 21.1468 83.1288 21.2735C83.3167 21.3961 83.4536 21.5718 83.5394 21.8006C83.6252 22.0253 83.6681 22.293 83.6681 22.6035V24.3503H83.233L83.2023 23.9397C83.1124 24.0623 83.0042 24.1563 82.8775 24.2216C82.7508 24.287 82.62 24.3299 82.4852 24.3503C82.3545 24.3749 82.2298 24.3871 82.1113 24.3871ZM82.1604 23.9274C82.3647 23.9274 82.5404 23.8947 82.6875 23.8294C82.8387 23.7599 82.9551 23.6598 83.0368 23.529C83.1185 23.3983 83.1594 23.2389 83.1594 23.051V22.8916H82.5894C82.4546 22.8916 82.3218 22.8936 82.191 22.8977C82.0603 22.9018 81.9418 22.9182 81.8355 22.9468C81.7293 22.9754 81.6435 23.0244 81.5781 23.0939C81.5168 23.1633 81.4862 23.2634 81.4862 23.3942C81.4862 23.5168 81.5168 23.6169 81.5781 23.6945C81.6435 23.7722 81.7272 23.8314 81.8294 23.8723C81.9356 23.909 82.046 23.9274 82.1604 23.9274Z" fill="#534AB7"/>
<path d="M84.4998 25.092L84.3527 24.8897C84.4099 24.8489 84.463 24.7998 84.5121 24.7426C84.5611 24.6854 84.604 24.6241 84.6408 24.5587C84.6816 24.4934 84.7102 24.428 84.7266 24.3626C84.6203 24.3544 84.5345 24.3197 84.4691 24.2584C84.4038 24.1971 84.3711 24.1154 84.3711 24.0132C84.3752 23.907 84.4119 23.8232 84.4814 23.7619C84.555 23.6966 84.6387 23.6639 84.7327 23.6639C84.8512 23.6639 84.9452 23.7068 85.0146 23.7926C85.0882 23.8784 85.125 23.9989 85.125 24.1542C85.125 24.2768 85.0943 24.4035 85.033 24.5342C84.9758 24.665 84.9002 24.7794 84.8063 24.8775C84.7123 24.9796 84.6101 25.0511 84.4998 25.092Z" fill="#534AB7"/>
<path d="M2.03615 29.9034C1.69292 29.9034 1.40893 29.8339 1.18419 29.695C0.959457 29.552 0.791926 29.3558 0.681601 29.1066C0.571276 28.8573 0.516113 28.5733 0.516113 28.2546C0.516113 27.9318 0.573319 27.6478 0.68773 27.4027C0.806228 27.1534 0.977845 26.9573 1.20258 26.8143C1.42732 26.6713 1.70313 26.5998 2.03002 26.5998C2.2711 26.5998 2.48154 26.6467 2.66132 26.7407C2.8452 26.8306 2.99639 26.9532 3.11488 27.1085C3.23747 27.2637 3.32532 27.4374 3.37844 27.6295C3.43564 27.8215 3.46016 28.0197 3.45199 28.224C3.4479 28.2608 3.44586 28.2975 3.44586 28.3343C3.44586 28.3711 3.44382 28.4079 3.43973 28.4446H1.04322C1.05957 28.6326 1.10656 28.8022 1.18419 28.9534C1.26183 29.1045 1.37215 29.2251 1.51517 29.315C1.65818 29.4008 1.83593 29.4437 2.04841 29.4437C2.15465 29.4437 2.26089 29.4314 2.36712 29.4069C2.47745 29.3783 2.57552 29.3313 2.66132 29.2659C2.75122 29.2006 2.81455 29.1127 2.85133 29.0024H3.38457C3.33553 29.2108 3.2436 29.3824 3.10875 29.5172C2.97391 29.648 2.81251 29.7461 2.62455 29.8114C2.43659 29.8727 2.24045 29.9034 2.03615 29.9034ZM1.05548 27.9911H2.92488C2.92079 27.8072 2.87993 27.6458 2.8023 27.5069C2.72466 27.3679 2.61842 27.2597 2.48358 27.182C2.35282 27.1044 2.19551 27.0656 2.01163 27.0656C1.81141 27.0656 1.64184 27.1085 1.50291 27.1943C1.36807 27.2801 1.26387 27.3925 1.19032 27.5314C1.11677 27.6703 1.07183 27.8235 1.05548 27.9911Z" fill="#534AB7"/>
<path d="M4.02962 29.8666V26.6365H4.5506V28.0279H5.11448L6.07063 26.6365H6.66516L5.58643 28.175L6.7571 29.8666H6.14418L5.17577 28.4814H4.5506V29.8666H4.02962Z" fill="#534AB7"/>
<path d="M8.06132 29.9034C7.91422 29.9034 7.77121 29.885 7.63228 29.8482C7.49744 29.8074 7.37485 29.7481 7.26453 29.6705C7.15829 29.5887 7.07248 29.4886 7.0071 29.3701C6.94581 29.2476 6.91516 29.1066 6.91516 28.9472C6.91516 28.7634 6.94785 28.6081 7.01323 28.4814C7.0827 28.3547 7.17463 28.2546 7.28904 28.1811C7.40346 28.1075 7.53625 28.0544 7.68744 28.0217C7.83863 27.989 7.99594 27.9727 8.15939 27.9727H9.10941C9.10941 27.7888 9.08285 27.6295 9.02973 27.4946C8.9807 27.3598 8.89897 27.2556 8.78456 27.182C8.67015 27.1044 8.51896 27.0656 8.331 27.0656C8.21659 27.0656 8.11035 27.0778 8.01229 27.1023C7.91422 27.1269 7.83045 27.1657 7.76099 27.2188C7.69153 27.2719 7.64045 27.3434 7.60776 27.4333H7.05001C7.07861 27.2862 7.13377 27.1616 7.21549 27.0594C7.3013 26.9532 7.40345 26.8674 7.52195 26.802C7.64454 26.7326 7.77529 26.6815 7.91422 26.6488C8.05315 26.6161 8.19208 26.5998 8.331 26.5998C8.64155 26.5998 8.8908 26.6631 9.07876 26.7898C9.26672 26.9123 9.40361 27.088 9.48942 27.3169C9.57523 27.5416 9.61813 27.8092 9.61813 28.1198V29.8666H9.18296L9.15231 29.4559C9.06242 29.5785 8.95414 29.6725 8.82747 29.7379C8.7008 29.8033 8.57004 29.8462 8.4352 29.8666C8.30444 29.8911 8.17982 29.9034 8.06132 29.9034ZM8.11035 29.4437C8.31466 29.4437 8.49036 29.411 8.63746 29.3456C8.78865 29.2762 8.9051 29.1761 8.98683 29.0453C9.06855 28.9145 9.10941 28.7552 9.10941 28.5672V28.4079H8.5394C8.40455 28.4079 8.27176 28.4099 8.141 28.414C8.01024 28.4181 7.89175 28.4344 7.78551 28.463C7.67927 28.4916 7.59346 28.5407 7.52808 28.6101C7.46679 28.6796 7.43614 28.7797 7.43614 28.9105C7.43614 29.033 7.46679 29.1331 7.52808 29.2108C7.59346 29.2884 7.67722 29.3477 7.77938 29.3885C7.88562 29.4253 7.99594 29.4437 8.11035 29.4437Z" fill="#534AB7"/>
<path d="M11.0566 29.8666V27.0962H9.94719V26.6365H12.6869V27.0962H11.5776V29.8666H11.0566Z" fill="#534AB7"/>
<path d="M14.4267 29.9034C14.0834 29.9034 13.7994 29.8339 13.5747 29.695C13.35 29.552 13.1824 29.3558 13.0721 29.1066C12.9618 28.8573 12.9066 28.5733 12.9066 28.2546C12.9066 27.9318 12.9638 27.6478 13.0782 27.4027C13.1967 27.1534 13.3684 26.9573 13.5931 26.8143C13.8178 26.6713 14.0936 26.5998 14.4205 26.5998C14.6616 26.5998 14.872 26.6467 15.0518 26.7407C15.2357 26.8306 15.3869 26.9532 15.5054 27.1085C15.628 27.2637 15.7158 27.4374 15.7689 27.6295C15.8262 27.8215 15.8507 28.0197 15.8425 28.224C15.8384 28.2608 15.8364 28.2975 15.8364 28.3343C15.8364 28.3711 15.8343 28.4079 15.8302 28.4446H13.4337C13.4501 28.6326 13.4971 28.8022 13.5747 28.9534C13.6523 29.1045 13.7627 29.2251 13.9057 29.315C14.0487 29.4008 14.2264 29.4437 14.4389 29.4437C14.5452 29.4437 14.6514 29.4314 14.7576 29.4069C14.868 29.3783 14.966 29.3313 15.0518 29.2659C15.1417 29.2006 15.2051 29.1127 15.2418 29.0024H15.7751C15.726 29.2108 15.6341 29.3824 15.4993 29.5172C15.3644 29.648 15.203 29.7461 15.0151 29.8114C14.8271 29.8727 14.631 29.9034 14.4267 29.9034ZM13.446 27.9911H15.3154C15.3113 27.8072 15.2704 27.6458 15.1928 27.5069C15.1152 27.3679 15.0089 27.2597 14.8741 27.182C14.7433 27.1044 14.586 27.0656 14.4021 27.0656C14.2019 27.0656 14.0324 27.1085 13.8934 27.1943C13.7586 27.2801 13.6544 27.3925 13.5808 27.5314C13.5073 27.6703 13.4623 27.8235 13.446 27.9911Z" fill="#534AB7"/>
<path d="M16.4201 31.0311V26.6365H16.9166L16.9411 27.133C17.0514 26.9573 17.2006 26.8245 17.3885 26.7346C17.5806 26.6447 17.7869 26.5998 18.0076 26.5998C18.3345 26.5998 18.6021 26.6733 18.8105 26.8204C19.0189 26.9634 19.1721 27.1596 19.2702 27.4088C19.3723 27.6581 19.4234 27.94 19.4234 28.2546C19.4234 28.5693 19.3723 28.8512 19.2702 29.1005C19.168 29.3497 19.0107 29.5458 18.7982 29.6889C18.5858 29.8319 18.314 29.9034 17.9831 29.9034C17.8196 29.9034 17.6725 29.887 17.5418 29.8543C17.411 29.8176 17.2966 29.7665 17.1985 29.7011C17.1005 29.6357 17.0147 29.5622 16.9411 29.4805V31.0311H16.4201ZM17.9402 29.4437C18.1772 29.4437 18.3651 29.3906 18.504 29.2843C18.643 29.174 18.7431 29.0289 18.8044 28.8492C18.8698 28.6694 18.9024 28.4712 18.9024 28.2546C18.9024 28.034 18.8698 27.8338 18.8044 27.654C18.7431 27.4742 18.6409 27.3312 18.4979 27.2249C18.3549 27.1187 18.1649 27.0656 17.9279 27.0656C17.7154 27.0656 17.5336 27.1207 17.3824 27.2311C17.2353 27.3373 17.1229 27.4824 17.0453 27.6662C16.9677 27.846 16.9288 28.0442 16.9288 28.2608C16.9288 28.4855 16.9656 28.6878 17.0392 28.8675C17.1127 29.0473 17.2251 29.1883 17.3763 29.2905C17.5275 29.3926 17.7154 29.4437 17.9402 29.4437Z" fill="#534AB7"/>
<path d="M19.9727 29.8666V26.6365H20.4936V29.1127C20.5222 29.0555 20.5611 28.9942 20.6101 28.9288C20.6591 28.8594 20.6979 28.8063 20.7265 28.7695L22.2895 26.6365H22.8043V29.8666H22.2834V27.3904C22.2507 27.4517 22.2139 27.5089 22.173 27.562C22.1363 27.6152 22.1015 27.6642 22.0688 27.7091L20.4814 29.8666H19.9727Z" fill="#534AB7"/>
<path d="M23.5012 29.8666V26.6365H24.0222V28.0524H25.6403V26.6365H26.1613V29.8666H25.6403V28.5121H24.0222V29.8666H23.5012Z" fill="#534AB7"/>
<path d="M27.8981 29.9034C27.751 29.9034 27.6079 29.885 27.469 29.8482C27.3342 29.8074 27.2116 29.7481 27.1013 29.6705C26.995 29.5887 26.9092 29.4886 26.8438 29.3701C26.7826 29.2476 26.7519 29.1066 26.7519 28.9472C26.7519 28.7634 26.7846 28.6081 26.85 28.4814C26.9194 28.3547 27.0114 28.2546 27.1258 28.1811C27.2402 28.1075 27.373 28.0544 27.5242 28.0217C27.6754 27.989 27.8327 27.9727 27.9961 27.9727H28.9461C28.9461 27.7888 28.9196 27.6295 28.8665 27.4946C28.8174 27.3598 28.7357 27.2556 28.6213 27.182C28.5069 27.1044 28.3557 27.0656 28.1677 27.0656C28.0533 27.0656 27.9471 27.0778 27.849 27.1023C27.751 27.1269 27.6672 27.1657 27.5977 27.2188C27.5283 27.2719 27.4772 27.3434 27.4445 27.4333H26.8867C26.9154 27.2862 26.9705 27.1616 27.0522 27.0594C27.138 26.9532 27.2402 26.8674 27.3587 26.802C27.4813 26.7326 27.612 26.6815 27.751 26.6488C27.8899 26.6161 28.0288 26.5998 28.1677 26.5998C28.4783 26.5998 28.7275 26.6631 28.9155 26.7898C29.1035 26.9123 29.2404 27.088 29.3262 27.3169C29.412 27.5416 29.4549 27.8092 29.4549 28.1198V29.8666H29.0197L28.9891 29.4559C28.8992 29.5785 28.7909 29.6725 28.6642 29.7379C28.5375 29.8033 28.4068 29.8462 28.2719 29.8666C28.1412 29.8911 28.0166 29.9034 27.8981 29.9034ZM27.9471 29.4437C28.1514 29.4437 28.3271 29.411 28.4742 29.3456C28.6254 29.2762 28.7418 29.1761 28.8236 29.0453C28.9053 28.9145 28.9461 28.7552 28.9461 28.5672V28.4079H28.3761C28.2413 28.4079 28.1085 28.4099 27.9777 28.414C27.847 28.4181 27.7285 28.4344 27.6222 28.463C27.516 28.4916 27.4302 28.5407 27.3648 28.6101C27.3035 28.6796 27.2729 28.7797 27.2729 28.9105C27.2729 29.033 27.3035 29.1331 27.3648 29.2108C27.4302 29.2884 27.514 29.3477 27.6161 29.3885C27.7224 29.4253 27.8327 29.4437 27.9471 29.4437Z" fill="#534AB7"/>
<path d="M30.2865 30.6082L30.1394 30.406C30.1966 30.3651 30.2498 30.3161 30.2988 30.2589C30.3478 30.2017 30.3907 30.1404 30.4275 30.075C30.4684 30.0096 30.497 29.9442 30.5133 29.8789C30.4071 29.8707 30.3213 29.836 30.2559 29.7747C30.1905 29.7134 30.1578 29.6317 30.1578 29.5295C30.1619 29.4233 30.1987 29.3395 30.2681 29.2782C30.3417 29.2128 30.4255 29.1801 30.5194 29.1801C30.6379 29.1801 30.7319 29.223 30.8014 29.3088C30.8749 29.3947 30.9117 29.5152 30.9117 29.6705C30.9117 29.7931 30.8811 29.9197 30.8198 30.0505C30.7626 30.1812 30.687 30.2956 30.593 30.3937C30.499 30.4959 30.3968 30.5674 30.2865 30.6082Z" fill="#534AB7"/>
<path d="M32.9588 29.8666V26.6365H33.4798V28.0279H34.0437L34.9999 26.6365H35.5944L34.5157 28.175L35.6863 29.8666H35.0734L34.105 28.4814H33.4798V29.8666H32.9588Z" fill="#534AB7"/>
<path d="M36.9905 29.9034C36.8434 29.9034 36.7004 29.885 36.5615 29.8482C36.4267 29.8074 36.3041 29.7481 36.1938 29.6705C36.0875 29.5887 36.0017 29.4886 35.9363 29.3701C35.875 29.2476 35.8444 29.1066 35.8444 28.9472C35.8444 28.7634 35.8771 28.6081 35.9425 28.4814C36.0119 28.3547 36.1039 28.2546 36.2183 28.1811C36.3327 28.1075 36.4655 28.0544 36.6167 28.0217C36.7679 27.989 36.9252 27.9727 37.0886 27.9727H38.0386C38.0386 27.7888 38.0121 27.6295 37.959 27.4946C37.9099 27.3598 37.8282 27.2556 37.7138 27.182C37.5994 27.1044 37.4482 27.0656 37.2602 27.0656C37.1458 27.0656 37.0396 27.0778 36.9415 27.1023C36.8434 27.1269 36.7597 27.1657 36.6902 27.2188C36.6208 27.2719 36.5697 27.3434 36.537 27.4333H35.9792C36.0078 27.2862 36.063 27.1616 36.1447 27.0594C36.2305 26.9532 36.3327 26.8674 36.4512 26.802C36.5738 26.7326 36.7045 26.6815 36.8434 26.6488C36.9824 26.6161 37.1213 26.5998 37.2602 26.5998C37.5708 26.5998 37.82 26.6631 38.008 26.7898C38.1959 26.9123 38.3328 27.088 38.4186 27.3169C38.5045 27.5416 38.5474 27.8092 38.5474 28.1198V29.8666H38.1122L38.0815 29.4559C37.9916 29.5785 37.8834 29.6725 37.7567 29.7379C37.63 29.8033 37.4993 29.8462 37.3644 29.8666C37.2337 29.8911 37.109 29.9034 36.9905 29.9034ZM37.0396 29.4437C37.2439 29.4437 37.4196 29.411 37.5667 29.3456C37.7179 29.2762 37.8343 29.1761 37.9161 29.0453C37.9978 28.9145 38.0386 28.7552 38.0386 28.5672V28.4079H37.4686C37.3338 28.4079 37.201 28.4099 37.0702 28.414C36.9395 28.4181 36.821 28.4344 36.7147 28.463C36.6085 28.4916 36.5227 28.5407 36.4573 28.6101C36.396 28.6796 36.3654 28.7797 36.3654 28.9105C36.3654 29.033 36.396 29.1331 36.4573 29.2108C36.5227 29.2884 36.6065 29.3477 36.7086 29.3885C36.8148 29.4253 36.9252 29.4437 37.0396 29.4437Z" fill="#534AB7"/>
<path d="M39.9858 29.8666V27.0962H38.8764V26.6365H41.6162V27.0962H40.5068V29.8666H39.9858Z" fill="#534AB7"/>
<path d="M42.9943 29.9034C42.8472 29.9034 42.7042 29.885 42.5652 29.8482C42.4304 29.8074 42.3078 29.7481 42.1975 29.6705C42.0912 29.5887 42.0054 29.4886 41.94 29.3701C41.8787 29.2476 41.8481 29.1066 41.8481 28.9472C41.8481 28.7634 41.8808 28.6081 41.9462 28.4814C42.0156 28.3547 42.1076 28.2546 42.222 28.1811C42.3364 28.1075 42.4692 28.0544 42.6204 28.0217C42.7716 27.989 42.9289 27.9727 43.0923 27.9727H44.0424C44.0424 27.7888 44.0158 27.6295 43.9627 27.4946C43.9136 27.3598 43.8319 27.2556 43.7175 27.182C43.6031 27.1044 43.4519 27.0656 43.264 27.0656C43.1495 27.0656 43.0433 27.0778 42.9452 27.1023C42.8472 27.1269 42.7634 27.1657 42.6939 27.2188C42.6245 27.2719 42.5734 27.3434 42.5407 27.4333H41.983C42.0116 27.2862 42.0667 27.1616 42.1484 27.0594C42.2343 26.9532 42.3364 26.8674 42.4549 26.802C42.5775 26.7326 42.7082 26.6815 42.8472 26.6488C42.9861 26.6161 43.125 26.5998 43.264 26.5998C43.5745 26.5998 43.8237 26.6631 44.0117 26.7898C44.1997 26.9123 44.3366 27.088 44.4224 27.3169C44.5082 27.5416 44.5511 27.8092 44.5511 28.1198V29.8666H44.1159L44.0853 29.4559C43.9954 29.5785 43.8871 29.6725 43.7604 29.7379C43.6337 29.8033 43.503 29.8462 43.3681 29.8666C43.2374 29.8911 43.1128 29.9034 42.9943 29.9034ZM43.0433 29.4437C43.2476 29.4437 43.4233 29.411 43.5704 29.3456C43.7216 29.2762 43.8381 29.1761 43.9198 29.0453C44.0015 28.9145 44.0424 28.7552 44.0424 28.5672V28.4079H43.4723C43.3375 28.4079 43.2047 28.4099 43.0739 28.414C42.9432 28.4181 42.8247 28.4344 42.7185 28.463C42.6122 28.4916 42.5264 28.5407 42.461 28.6101C42.3997 28.6796 42.3691 28.7797 42.3691 28.9105C42.3691 29.033 42.3997 29.1331 42.461 29.2108C42.5264 29.2884 42.6102 29.3477 42.7123 29.3885C42.8186 29.4253 42.9289 29.4437 43.0433 29.4437Z" fill="#534AB7"/>
<path d="M45.2356 29.8666V26.6365H45.9344L46.9824 28.2546L48.0121 26.6365H48.6986V29.8666H48.1838V27.2127L47.0437 29.0392H46.8966L45.7505 27.2127V29.8666H45.2356Z" fill="#534AB7"/>
<path d="M50.4345 29.9034C50.2874 29.9034 50.1444 29.885 50.0055 29.8482C49.8706 29.8074 49.748 29.7481 49.6377 29.6705C49.5315 29.5887 49.4457 29.4886 49.3803 29.3701C49.319 29.2476 49.2884 29.1066 49.2884 28.9472C49.2884 28.7634 49.321 28.6081 49.3864 28.4814C49.4559 28.3547 49.5478 28.2546 49.6622 28.1811C49.7766 28.1075 49.9095 28.0544 50.0606 28.0217C50.2118 27.989 50.3691 27.9727 50.5326 27.9727H51.4826C51.4826 27.7888 51.456 27.6295 51.4029 27.4946C51.3539 27.3598 51.2722 27.2556 51.1578 27.182C51.0433 27.1044 50.8922 27.0656 50.7042 27.0656C50.5898 27.0656 50.4835 27.0778 50.3855 27.1023C50.2874 27.1269 50.2037 27.1657 50.1342 27.2188C50.0647 27.2719 50.0136 27.3434 49.981 27.4333H49.4232C49.4518 27.2862 49.507 27.1616 49.5887 27.0594C49.6745 26.9532 49.7767 26.8674 49.8951 26.802C50.0177 26.7326 50.1485 26.6815 50.2874 26.6488C50.4263 26.6161 50.5653 26.5998 50.7042 26.5998C51.0147 26.5998 51.264 26.6631 51.452 26.7898C51.6399 26.9123 51.7768 27.088 51.8626 27.3169C51.9484 27.5416 51.9913 27.8092 51.9913 28.1198V29.8666H51.5562L51.5255 29.4559C51.4356 29.5785 51.3273 29.6725 51.2007 29.7379C51.074 29.8033 50.9432 29.8462 50.8084 29.8666C50.6776 29.8911 50.553 29.9034 50.4345 29.9034ZM50.4835 29.4437C50.6879 29.4437 50.8636 29.411 51.0107 29.3456C51.1618 29.2762 51.2783 29.1761 51.36 29.0453C51.4417 28.9145 51.4826 28.7552 51.4826 28.5672V28.4079H50.9126C50.7777 28.4079 50.6449 28.4099 50.5142 28.414C50.3834 28.4181 50.2649 28.4344 50.1587 28.463C50.0525 28.4916 49.9666 28.5407 49.9013 28.6101C49.84 28.6796 49.8093 28.7797 49.8093 28.9105C49.8093 29.033 49.84 29.1331 49.9013 29.2108C49.9666 29.2884 50.0504 29.3477 50.1526 29.3885C50.2588 29.4253 50.3691 29.4437 50.4835 29.4437Z" fill="#534AB7"/>
<path d="M52.6759 31.0311V26.6365H53.1723L53.1969 27.133C53.3072 26.9573 53.4563 26.8245 53.6443 26.7346C53.8363 26.6447 54.0427 26.5998 54.2633 26.5998C54.5902 26.5998 54.8579 26.6733 55.0662 26.8204C55.2746 26.9634 55.4279 27.1596 55.5259 27.4088C55.6281 27.6581 55.6792 27.94 55.6792 28.2546C55.6792 28.5693 55.6281 28.8512 55.5259 29.1005C55.4238 29.3497 55.2665 29.5458 55.054 29.6889C54.8415 29.8319 54.5698 29.9034 54.2388 29.9034C54.0754 29.9034 53.9283 29.887 53.7975 29.8543C53.6668 29.8176 53.5523 29.7665 53.4543 29.7011C53.3562 29.6357 53.2704 29.5622 53.1969 29.4805V31.0311H52.6759ZM54.1959 29.4437C54.4329 29.4437 54.6209 29.3906 54.7598 29.2843C54.8987 29.174 54.9988 29.0289 55.0601 28.8492C55.1255 28.6694 55.1582 28.4712 55.1582 28.2546C55.1582 28.034 55.1255 27.8338 55.0601 27.654C54.9988 27.4742 54.8967 27.3312 54.7537 27.2249C54.6107 27.1187 54.4206 27.0656 54.1837 27.0656C53.9712 27.0656 53.7893 27.1207 53.6382 27.2311C53.4911 27.3373 53.3787 27.4824 53.301 27.6662C53.2234 27.846 53.1846 28.0442 53.1846 28.2608C53.1846 28.4855 53.2214 28.6878 53.2949 28.8675C53.3685 29.0473 53.4808 29.1883 53.632 29.2905C53.7832 29.3926 53.9712 29.4437 54.1959 29.4437Z" fill="#534AB7"/>
<path d="M57.2642 29.9034C57.1171 29.9034 56.9741 29.885 56.8352 29.8482C56.7004 29.8074 56.5778 29.7481 56.4674 29.6705C56.3612 29.5887 56.2754 29.4886 56.21 29.3701C56.1487 29.2476 56.1181 29.1066 56.1181 28.9472C56.1181 28.7634 56.1508 28.6081 56.2161 28.4814C56.2856 28.3547 56.3775 28.2546 56.492 28.1811C56.6064 28.1075 56.7392 28.0544 56.8904 28.0217C57.0415 27.989 57.1989 27.9727 57.3623 27.9727H58.3123C58.3123 27.7888 58.2858 27.6295 58.2326 27.4946C58.1836 27.3598 58.1019 27.2556 57.9875 27.182C57.8731 27.1044 57.7219 27.0656 57.5339 27.0656C57.4195 27.0656 57.3133 27.0778 57.2152 27.1023C57.1171 27.1269 57.0334 27.1657 56.9639 27.2188C56.8944 27.2719 56.8434 27.3434 56.8107 27.4333H56.2529C56.2815 27.2862 56.3367 27.1616 56.4184 27.0594C56.5042 26.9532 56.6064 26.8674 56.7249 26.802C56.8475 26.7326 56.9782 26.6815 57.1171 26.6488C57.2561 26.6161 57.395 26.5998 57.5339 26.5998C57.8445 26.5998 58.0937 26.6631 58.2817 26.7898C58.4696 26.9123 58.6065 27.088 58.6923 27.3169C58.7781 27.5416 58.821 27.8092 58.821 28.1198V29.8666H58.3859L58.3552 29.4559C58.2653 29.5785 58.157 29.6725 58.0304 29.7379C57.9037 29.8033 57.773 29.8462 57.6381 29.8666C57.5074 29.8911 57.3827 29.9034 57.2642 29.9034ZM57.3133 29.4437C57.5176 29.4437 57.6933 29.411 57.8404 29.3456C57.9916 29.2762 58.108 29.1761 58.1897 29.0453C58.2715 28.9145 58.3123 28.7552 58.3123 28.5672V28.4079H57.7423C57.6075 28.4079 57.4747 28.4099 57.3439 28.414C57.2132 28.4181 57.0947 28.4344 56.9884 28.463C56.8822 28.4916 56.7964 28.5407 56.731 28.6101C56.6697 28.6796 56.6391 28.7797 56.6391 28.9105C56.6391 29.033 56.6697 29.1331 56.731 29.2108C56.7964 29.2884 56.8801 29.3477 56.9823 29.3885C57.0885 29.4253 57.1989 29.4437 57.3133 29.4437Z" fill="#534AB7"/>
<path d="M59.5056 29.8666V26.6365H60.0266V28.0524H61.6447V26.6365H62.1657V29.8666H61.6447V28.5121H60.0266V29.8666H59.5056Z" fill="#534AB7"/>
<path d="M63.0137 30.6082L62.8666 30.406C62.9238 30.3651 62.9769 30.3161 63.0259 30.2589C63.075 30.2017 63.1179 30.1404 63.1547 30.075C63.1955 30.0096 63.2241 29.9442 63.2405 29.8789C63.1342 29.8707 63.0484 29.836 62.983 29.7747C62.9177 29.7134 62.885 29.6317 62.885 29.5295C62.8891 29.4233 62.9258 29.3395 62.9953 29.2782C63.0689 29.2128 63.1526 29.1801 63.2466 29.1801C63.3651 29.1801 63.4591 29.223 63.5285 29.3088C63.6021 29.3947 63.6389 29.5152 63.6389 29.6705C63.6389 29.7931 63.6082 29.9197 63.5469 30.0505C63.4897 30.1812 63.4141 30.2956 63.3201 30.3937C63.2262 30.4959 63.124 30.5674 63.0137 30.6082Z" fill="#534AB7"/>
<path d="M65.686 29.8666V26.6365H66.207V28.0279H66.7709L67.727 26.6365H68.3215L67.2428 28.175L68.4135 29.8666H67.8006L66.8322 28.4814H66.207V29.8666H65.686Z" fill="#534AB7"/>
<path d="M69.7177 29.9034C69.5706 29.9034 69.4276 29.885 69.2887 29.8482C69.1538 29.8074 69.0312 29.7481 68.9209 29.6705C68.8147 29.5887 68.7289 29.4886 68.6635 29.3701C68.6022 29.2476 68.5716 29.1066 68.5716 28.9472C68.5716 28.7634 68.6042 28.6081 68.6696 28.4814C68.7391 28.3547 68.831 28.2546 68.9454 28.1811C69.0598 28.1075 69.1926 28.0544 69.3438 28.0217C69.495 27.989 69.6523 27.9727 69.8158 27.9727H70.7658C70.7658 27.7888 70.7392 27.6295 70.6861 27.4946C70.6371 27.3598 70.5554 27.2556 70.441 27.182C70.3265 27.1044 70.1754 27.0656 69.9874 27.0656C69.873 27.0656 69.7667 27.0778 69.6687 27.1023C69.5706 27.1269 69.4868 27.1657 69.4174 27.2188C69.3479 27.2719 69.2968 27.3434 69.2642 27.4333H68.7064C68.735 27.2862 68.7902 27.1616 68.8719 27.0594C68.9577 26.9532 69.0599 26.8674 69.1783 26.802C69.3009 26.7326 69.4317 26.6815 69.5706 26.6488C69.7095 26.6161 69.8485 26.5998 69.9874 26.5998C70.2979 26.5998 70.5472 26.6631 70.7352 26.7898C70.9231 26.9123 71.06 27.088 71.1458 27.3169C71.2316 27.5416 71.2745 27.8092 71.2745 28.1198V29.8666H70.8394L70.8087 29.4559C70.7188 29.5785 70.6105 29.6725 70.4839 29.7379C70.3572 29.8033 70.2264 29.8462 70.0916 29.8666C69.9608 29.8911 69.8362 29.9034 69.7177 29.9034ZM69.7667 29.4437C69.9711 29.4437 70.1468 29.411 70.2939 29.3456C70.445 29.2762 70.5615 29.1761 70.6432 29.0453C70.7249 28.9145 70.7658 28.7552 70.7658 28.5672V28.4079H70.1958C70.0609 28.4079 69.9281 28.4099 69.7974 28.414C69.6666 28.4181 69.5481 28.4344 69.4419 28.463C69.3357 28.4916 69.2499 28.5407 69.1845 28.6101C69.1232 28.6796 69.0925 28.7797 69.0925 28.9105C69.0925 29.033 69.1232 29.1331 69.1845 29.2108C69.2499 29.2884 69.3336 29.3477 69.4358 29.3885C69.542 29.4253 69.6523 29.4437 69.7667 29.4437Z" fill="#534AB7"/>
<path d="M72.713 29.8666V27.0962H71.6036V26.6365H74.3433V27.0962H73.2339V29.8666H72.713Z" fill="#534AB7"/>
<path d="M75.7214 29.9034C75.5743 29.9034 75.4313 29.885 75.2924 29.8482C75.1575 29.8074 75.035 29.7481 74.9246 29.6705C74.8184 29.5887 74.7326 29.4886 74.6672 29.3701C74.6059 29.2476 74.5753 29.1066 74.5753 28.9472C74.5753 28.7634 74.608 28.6081 74.6733 28.4814C74.7428 28.3547 74.8347 28.2546 74.9492 28.1811C75.0636 28.1075 75.1964 28.0544 75.3476 28.0217C75.4987 27.989 75.6561 27.9727 75.8195 27.9727H76.7695C76.7695 27.7888 76.743 27.6295 76.6898 27.4946C76.6408 27.3598 76.5591 27.2556 76.4447 27.182C76.3303 27.1044 76.1791 27.0656 75.9911 27.0656C75.8767 27.0656 75.7705 27.0778 75.6724 27.1023C75.5743 27.1269 75.4906 27.1657 75.4211 27.2188C75.3516 27.2719 75.3006 27.3434 75.2679 27.4333H74.7101C74.7387 27.2862 74.7939 27.1616 74.8756 27.0594C74.9614 26.9532 75.0636 26.8674 75.1821 26.802C75.3046 26.7326 75.4354 26.6815 75.5743 26.6488C75.7133 26.6161 75.8522 26.5998 75.9911 26.5998C76.3017 26.5998 76.5509 26.6631 76.7389 26.7898C76.9268 26.9123 77.0637 27.088 77.1495 27.3169C77.2353 27.5416 77.2782 27.8092 77.2782 28.1198V29.8666H76.8431L76.8124 29.4559C76.7225 29.5785 76.6142 29.6725 76.4876 29.7379C76.3609 29.8033 76.2302 29.8462 76.0953 29.8666C75.9646 29.8911 75.8399 29.9034 75.7214 29.9034ZM75.7705 29.4437C75.9748 29.4437 76.1505 29.411 76.2976 29.3456C76.4488 29.2762 76.5652 29.1761 76.6469 29.0453C76.7287 28.9145 76.7695 28.7552 76.7695 28.5672V28.4079H76.1995C76.0647 28.4079 75.9319 28.4099 75.8011 28.414C75.6703 28.4181 75.5519 28.4344 75.4456 28.463C75.3394 28.4916 75.2536 28.5407 75.1882 28.6101C75.1269 28.6796 75.0963 28.7797 75.0963 28.9105C75.0963 29.033 75.1269 29.1331 75.1882 29.2108C75.2536 29.2884 75.3373 29.3477 75.4395 29.3885C75.5457 29.4253 75.6561 29.4437 75.7705 29.4437Z" fill="#534AB7"/>
<path d="M77.9628 29.8666V26.6365H78.4838V28.0524H80.1019V26.6365H80.6229V29.8666H80.1019V28.5121H78.4838V29.8666H77.9628Z" fill="#534AB7"/>
<path d="M82.3596 29.9034C82.2125 29.9034 82.0695 29.885 81.9306 29.8482C81.7957 29.8074 81.6732 29.7481 81.5628 29.6705C81.4566 29.5887 81.3708 29.4886 81.3054 29.3701C81.2441 29.2476 81.2135 29.1066 81.2135 28.9472C81.2135 28.7634 81.2461 28.6081 81.3115 28.4814C81.381 28.3547 81.4729 28.2546 81.5873 28.1811C81.7018 28.1075 81.8345 28.0544 81.9857 28.0217C82.1369 27.989 82.2942 27.9727 82.4577 27.9727H83.4077C83.4077 27.7888 83.3811 27.6295 83.328 27.4946C83.279 27.3598 83.1973 27.2556 83.0829 27.182C82.9685 27.1044 82.8173 27.0656 82.6293 27.0656C82.5149 27.0656 82.4086 27.0778 82.3106 27.1023C82.2125 27.1269 82.1288 27.1657 82.0593 27.2188C81.9898 27.2719 81.9388 27.3434 81.9061 27.4333H81.3483C81.3769 27.2862 81.4321 27.1616 81.5138 27.0594C81.5996 26.9532 81.7018 26.8674 81.8202 26.802C81.9428 26.7326 82.0736 26.6815 82.2125 26.6488C82.3514 26.6161 82.4904 26.5998 82.6293 26.5998C82.9398 26.5998 83.1891 26.6631 83.3771 26.7898C83.565 26.9123 83.7019 27.088 83.7877 27.3169C83.8735 27.5416 83.9164 27.8092 83.9164 28.1198V29.8666H83.4813L83.4506 29.4559C83.3607 29.5785 83.2524 29.6725 83.1258 29.7379C82.9991 29.8033 82.8683 29.8462 82.7335 29.8666C82.6027 29.8911 82.4781 29.9034 82.3596 29.9034ZM82.4087 29.4437C82.613 29.4437 82.7887 29.411 82.9358 29.3456C83.087 29.2762 83.2034 29.1761 83.2851 29.0453C83.3668 28.9145 83.4077 28.7552 83.4077 28.5672V28.4079H82.8377C82.7029 28.4079 82.5701 28.4099 82.4393 28.414C82.3085 28.4181 82.19 28.4344 82.0838 28.463C81.9776 28.4916 81.8918 28.5407 81.8264 28.6101C81.7651 28.6796 81.7344 28.7797 81.7344 28.9105C81.7344 29.033 81.7651 29.1331 81.8264 29.2108C81.8918 29.2884 81.9755 29.3477 82.0777 29.3885C82.1839 29.4253 82.2942 29.4437 82.4087 29.4437Z" fill="#534AB7"/>
<path d="M84.7481 30.6082L84.601 30.406C84.6582 30.3651 84.7113 30.3161 84.7603 30.2589C84.8094 30.2017 84.8523 30.1404 84.889 30.075C84.9299 30.0096 84.9585 29.9442 84.9749 29.8789C84.8686 29.8707 84.7828 29.836 84.7174 29.7747C84.6521 29.7134 84.6194 29.6317 84.6194 29.5295C84.6234 29.4233 84.6602 29.3395 84.7297 29.2782C84.8032 29.2128 84.887 29.1801 84.981 29.1801C85.0995 29.1801 85.1935 29.223 85.2629 29.3088C85.3365 29.3947 85.3733 29.5152 85.3733 29.6705C85.3733 29.7931 85.3426 29.9197 85.2813 30.0505C85.2241 30.1812 85.1485 30.2956 85.0545 30.3937C84.9606 30.4959 84.8584 30.5674 84.7481 30.6082Z" fill="#534AB7"/>
<path d="M0.638697 35.3829V32.1528H1.15968V33.5686H2.77778V32.1528H3.29876V35.3829H2.77778V34.0283H1.15968V35.3829H0.638697Z" fill="#534AB7"/>
<path d="M5.4094 35.4196C5.07025 35.4196 4.78627 35.3502 4.55744 35.2112C4.32862 35.0682 4.157 34.8721 4.04259 34.6228C3.93227 34.3736 3.8771 34.0896 3.8771 33.7709C3.8771 33.4481 3.93227 33.1641 4.04259 32.9189C4.157 32.6697 4.32862 32.4735 4.55744 32.3305C4.78627 32.1875 5.07434 32.116 5.42166 32.116C5.7608 32.116 6.04275 32.1875 6.26748 32.3305C6.4963 32.4735 6.66588 32.6697 6.7762 32.9189C6.89062 33.1641 6.94782 33.4481 6.94782 33.7709C6.94782 34.0896 6.89062 34.3736 6.7762 34.6228C6.66179 34.8721 6.49018 35.0682 6.26135 35.2112C6.03662 35.3502 5.75263 35.4196 5.4094 35.4196ZM5.4094 34.9599C5.64639 34.9599 5.83844 34.9068 5.98554 34.8006C6.13673 34.6944 6.24705 34.5513 6.31652 34.3715C6.39007 34.1918 6.42684 33.9915 6.42684 33.7709C6.42684 33.5502 6.39007 33.35 6.31652 33.1702C6.24705 32.9904 6.13673 32.8474 5.98554 32.7412C5.83844 32.6349 5.64639 32.5818 5.4094 32.5818C5.17649 32.5818 4.98444 32.6349 4.83326 32.7412C4.68616 32.8474 4.57583 32.9904 4.50228 33.1702C4.43282 33.35 4.39808 33.5502 4.39808 33.7709C4.39808 33.9915 4.43282 34.1918 4.50228 34.3715C4.57583 34.5513 4.68616 34.6944 4.83326 34.8006C4.98444 34.9068 5.17649 34.9599 5.4094 34.9599Z" fill="#534AB7"/>
<path d="M9.05171 35.3829V32.1528H9.57269V33.5686H11.1908V32.1528H11.7118V35.3829H11.1908V34.0283H9.57269V35.3829H9.05171Z" fill="#534AB7"/>
<path d="M13.8102 35.4196C13.4669 35.4196 13.1829 35.3502 12.9582 35.2112C12.7335 35.0682 12.5659 34.8721 12.4556 34.6228C12.3453 34.3736 12.2901 34.0896 12.2901 33.7709C12.2901 33.4481 12.3473 33.1641 12.4617 32.9189C12.5802 32.6697 12.7518 32.4735 12.9766 32.3305C13.2013 32.1875 13.4771 32.116 13.804 32.116C14.0451 32.116 14.2555 32.163 14.4353 32.257C14.6192 32.3469 14.7704 32.4695 14.8889 32.6247C15.0115 32.78 15.0993 32.9537 15.1524 33.1457C15.2096 33.3378 15.2342 33.5359 15.226 33.7402C15.2219 33.777 15.2199 33.8138 15.2199 33.8506C15.2199 33.8873 15.2178 33.9241 15.2137 33.9609H12.8172C12.8336 34.1489 12.8806 34.3184 12.9582 34.4696C13.0358 34.6208 13.1462 34.7413 13.2892 34.8312C13.4322 34.917 13.6099 34.9599 13.8224 34.9599C13.9286 34.9599 14.0349 34.9477 14.1411 34.9232C14.2515 34.8946 14.3495 34.8476 14.4353 34.7822C14.5252 34.7168 14.5886 34.629 14.6253 34.5186H15.1586C15.1095 34.727 15.0176 34.8987 14.8828 35.0335C14.7479 35.1643 14.5865 35.2623 14.3986 35.3277C14.2106 35.389 14.0145 35.4196 13.8102 35.4196ZM12.8295 33.5073H14.6989C14.6948 33.3235 14.6539 33.1621 14.5763 33.0231C14.4987 32.8842 14.3924 32.7759 14.2576 32.6983C14.1268 32.6206 13.9695 32.5818 13.7856 32.5818C13.5854 32.5818 13.4158 32.6247 13.2769 32.7105C13.1421 32.7964 13.0379 32.9087 12.9643 33.0476C12.8908 33.1866 12.8458 33.3398 12.8295 33.5073Z" fill="#534AB7"/>
<path d="M17.333 35.3829V32.1528H17.854V33.5441H18.4179L19.3741 32.1528H19.9686L18.8898 33.6912L20.0605 35.3829H19.4476L18.4792 33.9977H17.854V35.3829H17.333Z" fill="#534AB7"/>
<path d="M21.3647 35.4196C21.2176 35.4196 21.0746 35.4012 20.9357 35.3645C20.8009 35.3236 20.6783 35.2644 20.5679 35.1867C20.4617 35.105 20.3759 35.0049 20.3105 34.8864C20.2492 34.7638 20.2186 34.6228 20.2186 34.4635C20.2186 34.2796 20.2513 34.1243 20.3167 33.9977C20.3861 33.871 20.4781 33.7709 20.5925 33.6973C20.7069 33.6238 20.8397 33.5707 20.9909 33.538C21.142 33.5053 21.2994 33.4889 21.4628 33.4889H22.4128C22.4128 33.3051 22.3863 33.1457 22.3332 33.0109C22.2841 32.876 22.2024 32.7718 22.088 32.6983C21.9736 32.6206 21.8224 32.5818 21.6344 32.5818C21.52 32.5818 21.4138 32.5941 21.3157 32.6186C21.2176 32.6431 21.1339 32.6819 21.0644 32.7351C20.9949 32.7882 20.9439 32.8597 20.9112 32.9496H20.3534C20.382 32.8025 20.4372 32.6779 20.5189 32.5757C20.6047 32.4695 20.7069 32.3837 20.8254 32.3183C20.948 32.2488 21.0787 32.1977 21.2176 32.165C21.3566 32.1324 21.4955 32.116 21.6344 32.116C21.945 32.116 22.1942 32.1793 22.3822 32.306C22.5701 32.4286 22.707 32.6043 22.7928 32.8331C22.8787 33.0579 22.9216 33.3255 22.9216 33.636V35.3829H22.4864L22.4557 34.9722C22.3658 35.0948 22.2576 35.1888 22.1309 35.2541C22.0042 35.3195 21.8735 35.3624 21.7386 35.3829C21.6079 35.4074 21.4832 35.4196 21.3647 35.4196ZM21.4138 34.9599C21.6181 34.9599 21.7938 34.9273 21.9409 34.8619C22.0921 34.7924 22.2085 34.6923 22.2902 34.5616C22.372 34.4308 22.4128 34.2714 22.4128 34.0835V33.9241H21.8428C21.708 33.9241 21.5752 33.9262 21.4444 33.9302C21.3137 33.9343 21.1952 33.9507 21.0889 33.9793C20.9827 34.0079 20.8969 34.0569 20.8315 34.1264C20.7702 34.1958 20.7396 34.296 20.7396 34.4267C20.7396 34.5493 20.7702 34.6494 20.8315 34.727C20.8969 34.8047 20.9806 34.8639 21.0828 34.9048C21.189 34.9416 21.2994 34.9599 21.4138 34.9599Z" fill="#534AB7"/>
<path d="M24.36 35.3829V32.6125H23.2506V32.1528H25.9904V32.6125H24.881V35.3829H24.36Z" fill="#534AB7"/>
<path d="M28.9498 35.4196C28.4758 35.4196 28.1183 35.2889 27.8772 35.0274C27.6361 34.7618 27.4992 34.4185 27.4665 33.9977H26.8536V35.3829H26.3326V32.1528H26.8536V33.5441H27.4665C27.491 33.2622 27.5585 33.015 27.6688 32.8025C27.7832 32.5859 27.9466 32.4184 28.1591 32.2999C28.3716 32.1773 28.6352 32.116 28.9498 32.116C29.293 32.116 29.577 32.1875 29.8017 32.3305C30.0265 32.4735 30.194 32.6697 30.3043 32.9189C30.4147 33.1641 30.4698 33.4481 30.4698 33.7709C30.4698 34.0896 30.4147 34.3736 30.3043 34.6228C30.194 34.8721 30.0265 35.0682 29.8017 35.2112C29.577 35.3502 29.293 35.4196 28.9498 35.4196ZM28.9498 34.9599C29.1868 34.9599 29.3768 34.9068 29.5198 34.8006C29.6669 34.6944 29.7752 34.5513 29.8446 34.3715C29.9141 34.1918 29.9488 33.9915 29.9488 33.7709C29.9488 33.5502 29.9141 33.35 29.8446 33.1702C29.7752 32.9904 29.6669 32.8474 29.5198 32.7412C29.3768 32.6349 29.1868 32.5818 28.9498 32.5818C28.7169 32.5818 28.5269 32.6349 28.3798 32.7412C28.2368 32.8474 28.1326 32.9904 28.0672 33.1702C28.0018 33.35 27.9691 33.5502 27.9691 33.7709C27.9691 33.9915 28.0018 34.1918 28.0672 34.3715C28.1326 34.5513 28.2368 34.6944 28.3798 34.8006C28.5269 34.9068 28.7169 34.9599 28.9498 34.9599Z" fill="#534AB7"/>
<path d="M30.6377 35.3829L31.79 33.7341L30.6929 32.1528H31.318L32.1394 33.3786L32.9361 32.1528H33.5429L32.4519 33.7525L33.6226 35.3829H33.0036L32.1087 34.1509L31.2261 35.3829H30.6377Z" fill="#534AB7"/>
<path d="M35.0302 35.4196C34.8831 35.4196 34.7401 35.4012 34.6011 35.3645C34.4663 35.3236 34.3437 35.2644 34.2334 35.1867C34.1271 35.105 34.0413 35.0049 33.976 34.8864C33.9147 34.7638 33.884 34.6228 33.884 34.4635C33.884 34.2796 33.9167 34.1243 33.9821 33.9977C34.0515 33.871 34.1435 33.7709 34.2579 33.6973C34.3723 33.6238 34.5051 33.5707 34.6563 33.538C34.8075 33.5053 34.9648 33.4889 35.1282 33.4889H36.0783C36.0783 33.3051 36.0517 33.1457 35.9986 33.0109C35.9495 32.876 35.8678 32.7718 35.7534 32.6983C35.639 32.6206 35.4878 32.5818 35.2999 32.5818C35.1854 32.5818 35.0792 32.5941 34.9811 32.6186C34.8831 32.6431 34.7993 32.6819 34.7298 32.7351C34.6604 32.7882 34.6093 32.8597 34.5766 32.9496H34.0189C34.0475 32.8025 34.1026 32.6779 34.1843 32.5757C34.2702 32.4695 34.3723 32.3837 34.4908 32.3183C34.6134 32.2488 34.7441 32.1977 34.8831 32.165C35.022 32.1324 35.1609 32.116 35.2999 32.116C35.6104 32.116 35.8596 32.1793 36.0476 32.306C36.2356 32.4286 36.3725 32.6043 36.4583 32.8331C36.5441 33.0579 36.587 33.3255 36.587 33.636V35.3829H36.1518L36.1212 34.9722C36.0313 35.0948 35.923 35.1888 35.7963 35.2541C35.6696 35.3195 35.5389 35.3624 35.404 35.3829C35.2733 35.4074 35.1487 35.4196 35.0302 35.4196ZM35.0792 34.9599C35.2835 34.9599 35.4592 34.9273 35.6063 34.8619C35.7575 34.7924 35.874 34.6923 35.9557 34.5616C36.0374 34.4308 36.0783 34.2714 36.0783 34.0835V33.9241H35.5082C35.3734 33.9241 35.2406 33.9262 35.1099 33.9302C34.9791 33.9343 34.8606 33.9507 34.7544 33.9793C34.6481 34.0079 34.5623 34.0569 34.4969 34.1264C34.4356 34.1958 34.405 34.296 34.405 34.4267C34.405 34.5493 34.4356 34.6494 34.4969 34.727C34.5623 34.8047 34.6461 34.8639 34.7482 34.9048C34.8545 34.9416 34.9648 34.9599 35.0792 34.9599Z" fill="#534AB7"/>
</svg>
